<mxfile host="app.diagrams.net" modified="2021-02-18T13:34:35.818Z" agent="5.0 (Macintosh; Intel Mac OS X 10_15_6) AppleWebKit/605.1.15 (KHTML, like Gecko) Version/14.0.2 Safari/605.1.15" etag="9AnyNVhzJsFzYJyUovRu" version="14.4.2" type="github">
  <diagram id="8MfwgFm97nD7bbm5SOFN" name="第 1 页">
    <mxGraphModel dx="830" dy="541" grid="1" gridSize="10" guides="1" tooltips="1" connect="1" arrows="1" fold="1" page="1" pageScale="1" pageWidth="827" pageHeight="1169" math="0" shadow="0">
      <root>
        <mxCell id="0" />
        <mxCell id="1" parent="0" />
        <mxCell id="v0lMdYqv3m4R4xaIk51k-1" value="源服务器" style="aspect=fixed;perimeter=ellipsePerimeter;html=1;align=center;shadow=0;dashed=0;spacingTop=3;image;image=img/lib/active_directory/web_server.svg;fontSize=16;" vertex="1" parent="1">
          <mxGeometry x="580" y="300" width="40" height="50" as="geometry" />
        </mxCell>
        <mxCell id="v0lMdYqv3m4R4xaIk51k-4" value="" style="endArrow=none;dashed=1;html=1;dashPattern=1 3;strokeWidth=2;fontSize=16;" edge="1" parent="1" source="v0lMdYqv3m4R4xaIk51k-3">
          <mxGeometry width="50" height="50" relative="1" as="geometry">
            <mxPoint x="160" y="490" as="sourcePoint" />
            <mxPoint x="160" y="280" as="targetPoint" />
          </mxGeometry>
        </mxCell>
        <mxCell id="v0lMdYqv3m4R4xaIk51k-5" value="" style="endArrow=none;dashed=1;html=1;dashPattern=1 3;strokeWidth=2;fontSize=16;" edge="1" parent="1">
          <mxGeometry width="50" height="50" relative="1" as="geometry">
            <mxPoint x="599.7857142857142" y="320" as="sourcePoint" />
            <mxPoint x="599.5" y="280" as="targetPoint" />
          </mxGeometry>
        </mxCell>
        <mxCell id="v0lMdYqv3m4R4xaIk51k-6" value="&lt;span style=&quot;background-color: rgb(255 , 153 , 153)&quot;&gt;/url1&lt;/span&gt;" style="edgeStyle=orthogonalEdgeStyle;rounded=0;orthogonalLoop=1;jettySize=auto;html=1;fontSize=16;" edge="1" parent="1">
          <mxGeometry relative="1" as="geometry">
            <mxPoint x="178" y="436" as="sourcePoint" />
            <mxPoint x="345" y="434" as="targetPoint" />
            <Array as="points">
              <mxPoint x="261" y="436" />
              <mxPoint x="261" y="434" />
            </Array>
          </mxGeometry>
        </mxCell>
        <mxCell id="v0lMdYqv3m4R4xaIk51k-7" value="" style="rounded=0;whiteSpace=wrap;html=1;fontSize=16;" vertex="1" parent="1">
          <mxGeometry x="142.5" y="420" width="30" height="140" as="geometry" />
        </mxCell>
        <mxCell id="v0lMdYqv3m4R4xaIk51k-8" value="" style="endArrow=none;dashed=1;html=1;dashPattern=1 3;strokeWidth=2;fontSize=16;" edge="1" parent="1" target="v0lMdYqv3m4R4xaIk51k-7">
          <mxGeometry width="50" height="50" relative="1" as="geometry">
            <mxPoint x="161" y="600" as="sourcePoint" />
            <mxPoint x="160" y="280" as="targetPoint" />
          </mxGeometry>
        </mxCell>
        <mxCell id="v0lMdYqv3m4R4xaIk51k-12" value="" style="endArrow=none;dashed=1;html=1;dashPattern=1 3;strokeWidth=2;fontSize=16;" edge="1" parent="1" source="v0lMdYqv3m4R4xaIk51k-13">
          <mxGeometry width="50" height="50" relative="1" as="geometry">
            <mxPoint x="600" y="600" as="sourcePoint" />
            <mxPoint x="600" y="380" as="targetPoint" />
          </mxGeometry>
        </mxCell>
        <mxCell id="v0lMdYqv3m4R4xaIk51k-13" value="" style="rounded=0;whiteSpace=wrap;html=1;fontSize=16;" vertex="1" parent="1">
          <mxGeometry x="585" y="440" width="30" height="60" as="geometry" />
        </mxCell>
        <mxCell id="v0lMdYqv3m4R4xaIk51k-14" value="" style="endArrow=none;dashed=1;html=1;dashPattern=1 3;strokeWidth=2;fontSize=16;" edge="1" parent="1" target="v0lMdYqv3m4R4xaIk51k-13">
          <mxGeometry width="50" height="50" relative="1" as="geometry">
            <mxPoint x="600" y="600" as="sourcePoint" />
            <mxPoint x="600" y="380" as="targetPoint" />
          </mxGeometry>
        </mxCell>
        <mxCell id="v0lMdYqv3m4R4xaIk51k-15" value="&lt;span style=&quot;background-color: rgb(204 , 255 , 204)&quot;&gt;200 资源2&lt;/span&gt;" style="edgeStyle=orthogonalEdgeStyle;rounded=0;orthogonalLoop=1;jettySize=auto;html=1;fontSize=16;dashed=1;" edge="1" parent="1">
          <mxGeometry relative="1" as="geometry">
            <mxPoint x="179.5" y="501.96000000000004" as="targetPoint" />
            <mxPoint x="339.5" y="501.96000000000004" as="sourcePoint" />
            <Array as="points">
              <mxPoint x="337.5" y="501.96" />
            </Array>
          </mxGeometry>
        </mxCell>
        <mxCell id="v0lMdYqv3m4R4xaIk51k-16" value="&lt;span style=&quot;background-color: rgb(102 , 255 , 255)&quot;&gt;/url2&lt;/span&gt;" style="edgeStyle=orthogonalEdgeStyle;rounded=0;orthogonalLoop=1;jettySize=auto;html=1;fontSize=16;" edge="1" parent="1">
          <mxGeometry x="0.019" relative="1" as="geometry">
            <mxPoint x="583" y="454.5" as="targetPoint" />
            <mxPoint x="373" y="454.5" as="sourcePoint" />
            <Array as="points">
              <mxPoint x="523" y="454.5" />
              <mxPoint x="523" y="454.5" />
            </Array>
            <mxPoint as="offset" />
          </mxGeometry>
        </mxCell>
        <mxCell id="v0lMdYqv3m4R4xaIk51k-17" value="&lt;span style=&quot;background-color: rgb(204 , 255 , 204)&quot;&gt;200 资源2&lt;/span&gt;" style="edgeStyle=orthogonalEdgeStyle;rounded=0;orthogonalLoop=1;jettySize=auto;html=1;entryX=1;entryY=0.75;entryDx=0;entryDy=0;fontSize=16;dashed=1;" edge="1" parent="1">
          <mxGeometry x="-0.0329" relative="1" as="geometry">
            <mxPoint x="583" y="484.5" as="sourcePoint" />
            <mxPoint x="370" y="484.5" as="targetPoint" />
            <mxPoint as="offset" />
          </mxGeometry>
        </mxCell>
        <mxCell id="v0lMdYqv3m4R4xaIk51k-18" value="" style="endArrow=none;dashed=1;html=1;dashPattern=1 3;strokeWidth=2;fontSize=16;" edge="1" parent="1" source="v0lMdYqv3m4R4xaIk51k-2">
          <mxGeometry width="50" height="50" relative="1" as="geometry">
            <mxPoint x="360" y="600" as="sourcePoint" />
            <mxPoint x="360" y="280" as="targetPoint" />
          </mxGeometry>
        </mxCell>
        <mxCell id="v0lMdYqv3m4R4xaIk51k-19" value="" style="rounded=0;whiteSpace=wrap;html=1;fontSize=16;" vertex="1" parent="1">
          <mxGeometry x="345" y="400" width="25" height="140" as="geometry" />
        </mxCell>
        <mxCell id="v0lMdYqv3m4R4xaIk51k-20" value="" style="endArrow=none;dashed=1;html=1;dashPattern=1 3;strokeWidth=2;fontSize=16;" edge="1" parent="1" target="v0lMdYqv3m4R4xaIk51k-19">
          <mxGeometry width="50" height="50" relative="1" as="geometry">
            <mxPoint x="360" y="600" as="sourcePoint" />
            <mxPoint x="360" y="280" as="targetPoint" />
          </mxGeometry>
        </mxCell>
        <mxCell id="v0lMdYqv3m4R4xaIk51k-3" value="客户端" style="aspect=fixed;perimeter=ellipsePerimeter;html=1;align=center;shadow=0;dashed=0;spacingTop=3;image;image=img/lib/active_directory/vista_terminal.svg;fontSize=16;" vertex="1" parent="1">
          <mxGeometry x="140" y="300" width="32.5" height="50" as="geometry" />
        </mxCell>
        <mxCell id="v0lMdYqv3m4R4xaIk51k-21" value="" style="endArrow=none;dashed=1;html=1;dashPattern=1 3;strokeWidth=2;fontSize=16;" edge="1" parent="1" source="v0lMdYqv3m4R4xaIk51k-7" target="v0lMdYqv3m4R4xaIk51k-3">
          <mxGeometry width="50" height="50" relative="1" as="geometry">
            <mxPoint x="158.33333333333337" y="420" as="sourcePoint" />
            <mxPoint x="160" y="280" as="targetPoint" />
          </mxGeometry>
        </mxCell>
        <mxCell id="v0lMdYqv3m4R4xaIk51k-2" value="代理服务器" style="aspect=fixed;perimeter=ellipsePerimeter;html=1;align=center;shadow=0;dashed=0;spacingTop=3;image;image=img/lib/active_directory/sql_server.svg;fontSize=16;" vertex="1" parent="1">
          <mxGeometry x="345" y="300" width="38.5" height="50" as="geometry" />
        </mxCell>
        <mxCell id="v0lMdYqv3m4R4xaIk51k-22" value="" style="endArrow=none;dashed=1;html=1;dashPattern=1 3;strokeWidth=2;fontSize=16;" edge="1" parent="1" source="v0lMdYqv3m4R4xaIk51k-19" target="v0lMdYqv3m4R4xaIk51k-2">
          <mxGeometry width="50" height="50" relative="1" as="geometry">
            <mxPoint x="358.42105263157896" y="400" as="sourcePoint" />
            <mxPoint x="360" y="280" as="targetPoint" />
          </mxGeometry>
        </mxCell>
      </root>
    </mxGraphModel>
  </diagram>
</mxfile>
